<mxfile host="app.diagrams.net" modified="2020-07-29T19:13:25.894Z" agent="5.0 (Windows NT 10.0; Win64; x64) AppleWebKit/537.36 (KHTML, like Gecko) Chrome/84.0.4147.105 Safari/537.36" etag="mL1bfqVsU4Ve6cWXHmd3" version="13.4.5" type="github">
  <diagram id="cR5MZWuLuvT774PmLJx_" name="Page-1">
    <mxGraphModel dx="1422" dy="794" grid="1" gridSize="10" guides="1" tooltips="1" connect="1" arrows="1" fold="1" page="1" pageScale="1" pageWidth="1600" pageHeight="900" math="0" shadow="0">
      <root>
        <mxCell id="0" />
        <mxCell id="1" parent="0" />
        <mxCell id="oVJjaK6qQnAcER31GJub-1" value="" style="ellipse;whiteSpace=wrap;html=1;aspect=fixed;" parent="1" vertex="1">
          <mxGeometry x="1020" y="400" width="40" height="40" as="geometry" />
        </mxCell>
        <mxCell id="E7bGlai2QmCmUidpkaRe-5" style="edgeStyle=orthogonalEdgeStyle;rounded=0;orthogonalLoop=1;jettySize=auto;html=1;exitX=0.5;exitY=0;exitDx=0;exitDy=0;entryX=0.5;entryY=1;entryDx=0;entryDy=0;" parent="1" source="OjRiXzT8_7qGMzPnmepB-2" target="E7bGlai2QmCmUidpkaRe-3" edge="1">
          <mxGeometry relative="1" as="geometry" />
        </mxCell>
        <mxCell id="OjRiXzT8_7qGMzPnmepB-2" value="" style="ellipse;whiteSpace=wrap;html=1;aspect=fixed;" parent="1" vertex="1">
          <mxGeometry x="72.5" y="402.5" width="35" height="35" as="geometry" />
        </mxCell>
        <mxCell id="OjRiXzT8_7qGMzPnmepB-1" value="" style="ellipse;whiteSpace=wrap;html=1;aspect=fixed;" parent="1" vertex="1">
          <mxGeometry x="1035" y="415" width="10" height="10" as="geometry" />
        </mxCell>
        <mxCell id="E7bGlai2QmCmUidpkaRe-10" style="edgeStyle=orthogonalEdgeStyle;rounded=0;orthogonalLoop=1;jettySize=auto;html=1;exitX=1;exitY=0.5;exitDx=0;exitDy=0;entryX=0;entryY=0.5;entryDx=0;entryDy=0;" parent="1" source="E7bGlai2QmCmUidpkaRe-3" target="E7bGlai2QmCmUidpkaRe-7" edge="1">
          <mxGeometry relative="1" as="geometry" />
        </mxCell>
        <mxCell id="E7bGlai2QmCmUidpkaRe-3" value="User inputs mood, genre, related artist,..." style="rounded=1;whiteSpace=wrap;html=1;" parent="1" vertex="1">
          <mxGeometry x="30" y="260" width="120" height="60" as="geometry" />
        </mxCell>
        <mxCell id="E7bGlai2QmCmUidpkaRe-4" value="Create mood playlist" style="text;html=1;align=center;verticalAlign=middle;resizable=0;points=[];autosize=1;" parent="1" vertex="1">
          <mxGeometry x="90" y="380" width="120" height="20" as="geometry" />
        </mxCell>
        <mxCell id="E7bGlai2QmCmUidpkaRe-17" style="edgeStyle=orthogonalEdgeStyle;rounded=0;orthogonalLoop=1;jettySize=auto;html=1;exitX=0.5;exitY=0;exitDx=0;exitDy=0;entryX=0.5;entryY=1;entryDx=0;entryDy=0;" parent="1" source="E7bGlai2QmCmUidpkaRe-7" target="E7bGlai2QmCmUidpkaRe-14" edge="1">
          <mxGeometry relative="1" as="geometry" />
        </mxCell>
        <mxCell id="E7bGlai2QmCmUidpkaRe-21" style="edgeStyle=orthogonalEdgeStyle;rounded=0;orthogonalLoop=1;jettySize=auto;html=1;exitX=1;exitY=0.5;exitDx=0;exitDy=0;entryX=0;entryY=0.5;entryDx=0;entryDy=0;" parent="1" source="E7bGlai2QmCmUidpkaRe-7" target="E7bGlai2QmCmUidpkaRe-20" edge="1">
          <mxGeometry relative="1" as="geometry" />
        </mxCell>
        <mxCell id="E7bGlai2QmCmUidpkaRe-7" value="" style="rhombus;whiteSpace=wrap;html=1;" parent="1" vertex="1">
          <mxGeometry x="230" y="275" width="30" height="30" as="geometry" />
        </mxCell>
        <mxCell id="E7bGlai2QmCmUidpkaRe-12" value="Optional artist input?&amp;nbsp;" style="text;html=1;strokeColor=none;fillColor=none;align=center;verticalAlign=middle;whiteSpace=wrap;rounded=0;" parent="1" vertex="1">
          <mxGeometry x="100" y="330" width="100" height="20" as="geometry" />
        </mxCell>
        <mxCell id="E7bGlai2QmCmUidpkaRe-13" value="[yes]" style="text;html=1;strokeColor=none;fillColor=none;align=center;verticalAlign=middle;whiteSpace=wrap;rounded=0;" parent="1" vertex="1">
          <mxGeometry x="180" y="230" width="40" height="20" as="geometry" />
        </mxCell>
        <mxCell id="E7bGlai2QmCmUidpkaRe-18" style="edgeStyle=orthogonalEdgeStyle;rounded=0;orthogonalLoop=1;jettySize=auto;html=1;exitX=0.5;exitY=0;exitDx=0;exitDy=0;entryX=0.5;entryY=1;entryDx=0;entryDy=0;" parent="1" source="E7bGlai2QmCmUidpkaRe-14" target="E7bGlai2QmCmUidpkaRe-15" edge="1">
          <mxGeometry relative="1" as="geometry" />
        </mxCell>
        <mxCell id="E7bGlai2QmCmUidpkaRe-14" value="Check artist&#39;s songs that match criteria" style="rounded=1;whiteSpace=wrap;html=1;" parent="1" vertex="1">
          <mxGeometry x="185" y="150" width="120" height="60" as="geometry" />
        </mxCell>
        <mxCell id="bcWfCiXGso15O_stHYik-7" style="edgeStyle=orthogonalEdgeStyle;rounded=0;orthogonalLoop=1;jettySize=auto;html=1;exitX=1;exitY=0.5;exitDx=0;exitDy=0;entryX=0.5;entryY=0;entryDx=0;entryDy=0;" edge="1" parent="1" source="E7bGlai2QmCmUidpkaRe-15" target="E7bGlai2QmCmUidpkaRe-22">
          <mxGeometry relative="1" as="geometry" />
        </mxCell>
        <mxCell id="E7bGlai2QmCmUidpkaRe-15" value="Call recommendations function for related songs&amp;nbsp;" style="rounded=1;whiteSpace=wrap;html=1;" parent="1" vertex="1">
          <mxGeometry x="185" y="50" width="120" height="60" as="geometry" />
        </mxCell>
        <mxCell id="E7bGlai2QmCmUidpkaRe-19" value="[no]" style="text;html=1;align=center;verticalAlign=middle;resizable=0;points=[];autosize=1;" parent="1" vertex="1">
          <mxGeometry x="260" y="305" width="40" height="20" as="geometry" />
        </mxCell>
        <mxCell id="E7bGlai2QmCmUidpkaRe-23" style="edgeStyle=orthogonalEdgeStyle;rounded=0;orthogonalLoop=1;jettySize=auto;html=1;exitX=1;exitY=0.5;exitDx=0;exitDy=0;entryX=0;entryY=0.5;entryDx=0;entryDy=0;" parent="1" source="E7bGlai2QmCmUidpkaRe-20" target="E7bGlai2QmCmUidpkaRe-22" edge="1">
          <mxGeometry relative="1" as="geometry" />
        </mxCell>
        <mxCell id="E7bGlai2QmCmUidpkaRe-20" value="Call recommendations function with criteria" style="rounded=1;whiteSpace=wrap;html=1;" parent="1" vertex="1">
          <mxGeometry x="330" y="260" width="120" height="60" as="geometry" />
        </mxCell>
        <mxCell id="bcWfCiXGso15O_stHYik-6" style="edgeStyle=orthogonalEdgeStyle;rounded=0;orthogonalLoop=1;jettySize=auto;html=1;exitX=1;exitY=0.5;exitDx=0;exitDy=0;entryX=0;entryY=0.5;entryDx=0;entryDy=0;" edge="1" parent="1" source="E7bGlai2QmCmUidpkaRe-22" target="bcWfCiXGso15O_stHYik-2">
          <mxGeometry relative="1" as="geometry" />
        </mxCell>
        <mxCell id="E7bGlai2QmCmUidpkaRe-22" value="Find recommendations that fit by filtering by certain attributes" style="rounded=1;whiteSpace=wrap;html=1;" parent="1" vertex="1">
          <mxGeometry x="530" y="260" width="120" height="60" as="geometry" />
        </mxCell>
        <mxCell id="bcWfCiXGso15O_stHYik-8" style="edgeStyle=orthogonalEdgeStyle;rounded=0;orthogonalLoop=1;jettySize=auto;html=1;exitX=1;exitY=0.5;exitDx=0;exitDy=0;entryX=0;entryY=0;entryDx=0;entryDy=0;" edge="1" parent="1" source="bcWfCiXGso15O_stHYik-2" target="oVJjaK6qQnAcER31GJub-1">
          <mxGeometry relative="1" as="geometry" />
        </mxCell>
        <mxCell id="bcWfCiXGso15O_stHYik-11" style="edgeStyle=orthogonalEdgeStyle;rounded=0;orthogonalLoop=1;jettySize=auto;html=1;exitX=0.5;exitY=1;exitDx=0;exitDy=0;entryX=1;entryY=0.5;entryDx=0;entryDy=0;" edge="1" parent="1" source="bcWfCiXGso15O_stHYik-2" target="bcWfCiXGso15O_stHYik-10">
          <mxGeometry relative="1" as="geometry" />
        </mxCell>
        <mxCell id="bcWfCiXGso15O_stHYik-2" value="" style="rhombus;whiteSpace=wrap;html=1;" vertex="1" parent="1">
          <mxGeometry x="700" y="290" width="30" height="30" as="geometry" />
        </mxCell>
        <mxCell id="2" value="Song limit reached?" style="text;html=1;align=center;verticalAlign=middle;resizable=0;points=[];autosize=1;" vertex="1" parent="1">
          <mxGeometry x="660" y="250" width="120" height="20" as="geometry" />
        </mxCell>
        <mxCell id="bcWfCiXGso15O_stHYik-3" value="Yes" style="text;html=1;align=center;verticalAlign=middle;resizable=0;points=[];autosize=1;" vertex="1" parent="1">
          <mxGeometry x="740" y="275" width="40" height="20" as="geometry" />
        </mxCell>
        <mxCell id="bcWfCiXGso15O_stHYik-4" value="No&lt;br&gt;" style="text;html=1;align=center;verticalAlign=middle;resizable=0;points=[];autosize=1;" vertex="1" parent="1">
          <mxGeometry x="680" y="320" width="30" height="20" as="geometry" />
        </mxCell>
        <mxCell id="bcWfCiXGso15O_stHYik-12" style="edgeStyle=orthogonalEdgeStyle;rounded=0;orthogonalLoop=1;jettySize=auto;html=1;exitX=0;exitY=0.5;exitDx=0;exitDy=0;entryX=0.5;entryY=1;entryDx=0;entryDy=0;" edge="1" parent="1" source="bcWfCiXGso15O_stHYik-10" target="E7bGlai2QmCmUidpkaRe-20">
          <mxGeometry relative="1" as="geometry" />
        </mxCell>
        <mxCell id="bcWfCiXGso15O_stHYik-10" value="&#xa;&#xa;&lt;span style=&quot;color: rgb(0, 0, 0); font-family: helvetica; font-size: 12px; font-style: normal; font-weight: 400; letter-spacing: normal; text-align: center; text-indent: 0px; text-transform: none; word-spacing: 0px; background-color: rgb(248, 249, 250); display: inline; float: none;&quot;&gt;Add song URIs to recommendations function from already found songs&lt;/span&gt;&#xa;&#xa;" style="rounded=1;whiteSpace=wrap;html=1;" vertex="1" parent="1">
          <mxGeometry x="450" y="370" width="120" height="60" as="geometry" />
        </mxCell>
      </root>
    </mxGraphModel>
  </diagram>
</mxfile>
